<?xml version="1.0" standalone="no"?>
<!DOCTYPE svg PUBLIC "-//W3C//DTD SVG 20010904//EN"
 "http://www.w3.org/TR/2001/REC-SVG-20010904/DTD/svg10.dtd">
<svg version="1.0" xmlns="http://www.w3.org/2000/svg"
 width="64.000000pt" height="64.000000pt" viewBox="0 0 64.000000 64.000000"
 preserveAspectRatio="xMidYMid meet">
<metadata>
Created by potrace 1.10, written by Peter Selinger 2001-2011
</metadata>
<g transform="translate(0.000000,64.000000) scale(0.100000,-0.100000)"
fill="#000000" stroke="none">
<path d="M565 571 c-6 -6 -51 -21 -101 -34 -112 -30 -156 -51 -196 -91 -29
-29 -88 -138 -88 -162 0 -7 30 18 68 55 65 64 181 141 212 141 8 0 -9 -16 -39
-36 -89 -60 -207 -181 -276 -282 -35 -53 -63 -97 -61 -99 11 -12 44 19 81 77
43 67 43 67 139 104 100 39 125 56 82 56 -14 0 -26 5 -26 10 0 6 22 10 50 10
47 0 50 2 80 44 16 25 30 47 30 50 0 3 -17 6 -37 8 l-38 4 48 14 c44 13 48 18
67 68 21 56 23 81 5 63z m-115 -179 c0 -14 -23 -32 -42 -32 -23 0 -23 16 0 29
21 13 42 14 42 3z"/>
<path d="M423 208 c-44 -21 -29 -42 46 -69 25 -8 46 -20 48 -26 6 -17 -32 -23
-194 -30 -84 -3 -153 -10 -153 -14 0 -13 110 -22 220 -17 122 6 173 25 168 61
-2 17 -16 26 -65 42 -35 10 -63 22 -63 26 0 8 52 19 91 19 16 0 29 5 29 10 0
13 -99 12 -127 -2z"/>
</g>
</svg>
